inDegrees=no
DataType=double
version=3
OpenSimVersion=4.4-2022-10-11-798caa840
endheader
time	elv_angle	shoulder_elv	shoulder_rot	elbow_flexion	pro_sup	deviation	flexion
2.4020851434	0.3316125572	0.6886471510	-0.1047197580	1.6844273806	0.0000000000	0.0000000000	0.0000000000
2.4062554301	0.3316125572	0.6886471510	-0.1047197580	1.6844273806	0.0000000000	0.0000000000	0.0000000000
2.4104257168	0.3316125572	0.6886471510	-0.1047197580	1.6844273806	0.0000000000	0.0000000000	0.0000000000
2.4145960035	0.3316125572	0.6886471510	-0.1047197580	1.6844273806	0.0000000000	0.0000000000	0.0000000000
2.4187662902	0.3316125572	0.6886471510	-0.1047197580	1.6844273806	0.0000000000	0.0000000000	0.0000000000
2.4229365769	0.3316125572	0.6886471510	-0.1047197580	1.6844273806	0.0000000000	0.0000000000	0.0000000000
2.4271068636	0.3316125572	0.6886471510	-0.1047197580	1.6844273806	0.0000000000	0.0000000000	0.0000000000
2.4312771503	0.3316125572	0.6886471510	-0.1047197580	1.6844273806	0.0000000000	0.0000000000	0.0000000000
2.4354474370	0.3316125572	0.6886471510	-0.1047197580	1.6844273806	0.0000000000	0.0000000000	0.0000000000
2.4396177237	0.3316125572	0.6886471510	-0.1047197580	1.6844273806	0.0000000000	0.0000000000	0.0000000000
2.4437880104	0.3316125572	0.6886471510	-0.1047197580	1.6844273806	0.0000000000	0.0000000000	0.0000000000
2.4479582971	0.3316125572	0.6886471510	-0.1047197580	1.6844273806	0.0000000000	0.0000000000	0.0000000000
2.4521285838	0.3316125572	0.6886471510	-0.1047197580	1.6844273806	0.0000000000	0.0000000000	0.0000000000
2.4562988705	0.3316125572	0.6886471510	-0.1047197580	1.6844273806	0.0000000000	0.0000000000	0.0000000000
2.4604691573	0.3316125572	0.6886471510	-0.1047197580	1.6844273806	0.0000000000	0.0000000000	0.0000000000
2.4646394440	0.3316125572	0.6886471510	-0.1047197580	1.6844273806	0.0000000000	0.0000000000	0.0000000000
2.4688097307	0.3316125572	0.6886471510	-0.1047197580	1.6844273806	0.0000000000	0.0000000000	0.0000000000
2.4729800174	0.3316125572	0.6886471510	-0.1047197580	1.6844273806	0.0000000000	0.0000000000	0.0000000000
2.4771503041	0.3316125572	0.6886471510	-0.1047197580	1.6844273806	0.0000000000	0.0000000000	0.0000000000
2.4813205908	0.3316125572	0.6886471510	-0.1047197580	1.6844273806	0.0000000000	0.0000000000	0.0000000000
2.4854908775	0.3316125572	0.6886471510	-0.1047197580	1.6844273806	0.0000000000	0.0000000000	0.0000000000
2.4896611642	0.3316125572	0.6886471510	-0.1047197580	1.6844273806	0.0000000000	0.0000000000	0.0000000000
2.4938314509	0.3316125572	0.6886471510	-0.1047197580	1.6844273806	0.0000000000	0.0000000000	0.0000000000
2.4980017376	0.3316125572	0.6886471510	-0.1047197580	1.6844273806	0.0000000000	0.0000000000	0.0000000000
2.5021720243	0.3316125572	0.6886471510	-0.1047197580	1.6844273806	0.0000000000	0.0000000000	0.0000000000
2.5063423110	0.3316125572	0.6886471510	-0.1047197580	1.6844273806	0.0000000000	0.0000000000	0.0000000000
2.5105125977	0.3316125572	0.6886471510	-0.1047197580	1.6844273806	0.0000000000	0.0000000000	0.0000000000
2.5146828844	0.3316125572	0.6886471510	-0.1047197580	1.6844273806	0.0000000000	0.0000000000	0.0000000000
2.5188531712	0.3316125572	0.6886471510	-0.1047197580	1.6844273806	0.0000000000	0.0000000000	0.0000000000
2.5230234579	0.3316125572	0.6886471510	-0.1047197580	1.6844273806	0.0000000000	0.0000000000	0.0000000000
2.5271937446	0.3316125572	0.6886471510	-0.1047197580	1.6844273806	0.0000000000	0.0000000000	0.0000000000
2.5313640313	0.3316125572	0.6886471510	-0.1047197580	1.6844273806	0.0000000000	0.0000000000	0.0000000000
2.5355343180	0.3316125572	0.6886471510	-0.1047197580	1.6844273806	0.0000000000	0.0000000000	0.0000000000
2.5397046047	0.3316125572	0.6886471510	-0.1047197580	1.6844273806	0.0000000000	0.0000000000	0.0000000000
2.5438748914	0.3316125572	0.6886471510	-0.1047197580	1.6844273806	0.0000000000	0.0000000000	0.0000000000
2.5480451781	0.3316125572	0.6886471510	-0.1047197580	1.6844273806	0.0000000000	0.0000000000	0.0000000000
2.5522154648	0.3316125572	0.6886471510	-0.1047197580	1.6844273806	0.0000000000	0.0000000000	0.0000000000
2.5563857515	0.3316125572	0.6886471510	-0.1047197580	1.6844273806	0.0000000000	0.0000000000	0.0000000000
2.5605560382	0.3316125572	0.6886471510	-0.1047197580	1.6844273806	0.0000000000	0.0000000000	0.0000000000
2.5647263249	0.3316125572	0.6886471510	-0.1047197580	1.6844273806	0.0000000000	0.0000000000	0.0000000000
2.5688966116	0.3316125572	0.6886471510	-0.1047197580	1.6844273806	0.0000000000	0.0000000000	0.0000000000
2.5730668983	0.3316125572	0.6886471510	-0.1047197580	1.6844273806	0.0000000000	0.0000000000	0.0000000000
2.5772371851	0.3316125572	0.6886471510	-0.1047197580	1.6844273806	0.0000000000	0.0000000000	0.0000000000
2.5814074718	0.3316125572	0.6886471510	-0.1047197580	1.6844273806	0.0000000000	0.0000000000	0.0000000000
2.5855777585	0.3316125572	0.6886471510	-0.1047197580	1.6844273806	0.0000000000	0.0000000000	0.0000000000
2.5897480452	0.3316125572	0.6886471510	-0.1047197580	1.6844273806	0.0000000000	0.0000000000	0.0000000000
2.5939183319	0.3316125572	0.6886471510	-0.1047197580	1.6844273806	0.0000000000	0.0000000000	0.0000000000
2.5980886186	0.3316125572	0.6886471510	-0.1047197580	1.6844273806	0.0000000000	0.0000000000	0.0000000000
2.6022589053	0.3316125572	0.6886471510	-0.1047197580	1.6844273806	0.0000000000	0.0000000000	0.0000000000
2.6064291920	0.3316125572	0.6886471510	-0.1047197580	1.6844273806	0.0000000000	0.0000000000	0.0000000000
2.6105994787	0.3316125572	0.6886471510	-0.1047197580	1.6844273806	0.0000000000	0.0000000000	0.0000000000
2.6147697654	0.3316125572	0.6886471510	-0.1047197580	1.6844273806	0.0000000000	0.0000000000	0.0000000000
2.6189400521	0.3316125572	0.6886471510	-0.1047197580	1.6844273806	0.0000000000	0.0000000000	0.0000000000
2.6231103388	0.3316125572	0.6886471510	-0.1047197580	1.6844273806	0.0000000000	0.0000000000	0.0000000000
2.6272806255	0.3316125572	0.6886471510	-0.1047197580	1.6844273806	0.0000000000	0.0000000000	0.0000000000
2.6314509123	0.3316125572	0.6886471510	-0.1047197580	1.6844273806	0.0000000000	0.0000000000	0.0000000000
2.6356211990	0.3316125572	0.6886471510	-0.1047197580	1.6844273806	0.0000000000	0.0000000000	0.0000000000
2.6397914857	0.3316125572	0.6886471510	-0.1047197580	1.6844273806	0.0000000000	0.0000000000	0.0000000000
2.6439617724	0.3316125572	0.6886471510	-0.1047197580	1.6844273806	0.0000000000	0.0000000000	0.0000000000
2.6481320591	0.3316125572	0.6886471510	-0.1047197580	1.6844273806	0.0000000000	0.0000000000	0.0000000000
2.6523023458	0.3316125572	0.6886471510	-0.1047197580	1.6844273806	0.0000000000	0.0000000000	0.0000000000
2.6564726325	0.3316125572	0.6886467338	-0.1047197580	1.6844278574	0.0000000000	0.0000000000	0.0000000000
2.6606429192	0.3316125572	0.6886371970	-0.1047197580	1.6844429970	0.0000000000	0.0000000000	0.0000000000
2.6648132059	0.3316125572	0.6886125207	-0.1047197580	1.6844815016	0.0000000000	0.0000000000	0.0000000000
2.6689834926	0.3316125572	0.6885649562	-0.1047197580	1.6845558882	0.0000000000	0.0000000000	0.0000000000
2.6731537793	0.3316125572	0.6884874701	-0.1047197580	1.6846773624	0.0000000000	0.0000000000	0.0000000000
